<svg xmlns="http://www.w3.org/2000/svg" version="1.1" xmlns:xlink="http://www.w3.org/1999/xlink" xmlns:svgjs="http://svgjs.dev/svgjs" viewBox="0 0 800 800"><defs><linearGradient x1="50%" y1="0%" x2="50%" y2="100%" id="ccchaos-grad"><stop stop-color="hsl(206, 75%, 49%)" stop-opacity="1" offset="0%"></stop><stop stop-color="hsl(331, 90%, 56%)" stop-opacity="1" offset="100%"></stop></linearGradient></defs><g stroke-width="2.5" stroke="url(#ccchaos-grad)" fill="none" stroke-linecap="round"><path d="M378.68 85.33C388.76 90.12 399.48 95.51 410.86 101.23 422.33 106.58 434.56 111.83 447.57 116.79 460.79 120.84 474.87 124.39 489.82 127.4 504.98 129.36 520.99 130.84 537.69 131.93 554.4 132.21 571.54 132.36 588.77 132.56 605.42 132.41 621.53 132.66 636.56 133.44 650.03 134.4 661.55 136.19 670.51 138.89 676.91 142.16 680.06 146.48 679.6 151.84 676.35 157.94 669.65 165.08 659.82 173.17 648.56 181.97 635.65 191.6 622.18 201.92 610.34 212.8 600.39 224.22 593.68 236.02 591.92 248.22 595.3 260.65 604.42 273.19 619.42 285.97 639.63 298.75 664.01 311.44 691 324.27 718.73 336.93 744.93 349.36 767.52 361.87 784.39 374.1 793.73 385.98 795.05 397.91 787.55 409.46 771.68 420.54 749.64 431.61 723.33 441.91 695.44 451.38 668.64 460.78 645.11 469.28 626.71 476.84 614.87 484.26 609.94 490.67 611.69 496.03 619.97 501.23 632.99 505.37 649.09 508.48 667.48 511.5 685.51 513.61 701.56 514.93 720.04 516.93 727.06 520.51 715.13 523.68 701.87 527.37 685.32 532.25 666.45 538.65 645.8 547.06 624.38 557.42 602.98 569.91 581.68 584.55 561.39 601.27 542.47 619.86 524.64 639.89 508.44 661.03 493.85 682.65 480.48 704.02 468.49 724.47 457.63 743.09 447.68 759.26 438.47 772.11 429.75 780.87 421.51 785.5 413.42 785.28 405.28 780.05 397.31 770.73 389.08 757.06 380.51 739.74 371.95 720.54 362.97 699.74 353.54 678.62 344.12 659.2 334.52 642.3 324.83 628.81 315.21 619.63 305.6 614.74 296.13 614.13 286.84 618.03 277.83 625.46 269.24 635.66 260.95 648.55 253.2 662.51 246.13 676.59 239.42 690.8 233.44 703.48 228.25 713.95 221.27 725.29 210.74 727.87 206.56 719.17 203.45 709.96 200.32 698.29 197 684.66 192.78 669.49 188.08 653.12 182.77 636.03 176.35 618.33 169.29 600.52 161.61 582.93 153.1 565.4 144.28 548.43 135.38 532.19 126.36 516.32 117.78 501.25 109.97 487.01 102.84 473.19 96.94 460.11 92.46 447.74 89.12 435.69 87.31 424.19 87.01 413.19 87.6 402.36 89.35 391.9 92.02 381.77 94.76 371.69 97.81 361.86 100.89 352.27 103.11 342.67 104.85 333.52 106.01 324.8 106.02 316.08 105.54 307.82 104.72 300.05 103.22 292.3 101.87 285.07 100.95 278.39 100.22 271.75 100.49 265.67 101.94 260.18 104.33 254.68 108.21 249.73 113.57 245.31 120.07 240.78 127.93 236.67 136.95 232.92 146.7 228.87 157.2 225 168.16 221.24 179.17 216.91 190.18 212.49 200.99 207.86 211.23 202.45 221.01 196.69 230.27 190.51 238.67 183.47 246.53 175.98 253.94 168.08 260.52 159.46 266.8 150.58 272.94 141.55 278.45 132.22 284.04 123.06 289.82 114.29 295.23 105.78 301.02 98.04 307.28 91.3 313.34 85.36 319.98 80.71 327.25 77.52 334.41 75.41 342.26 74.83 350.82 75.78 359.33 77.69 368.6 80.92 378.67 85.32" stroke-dasharray="5 1" transform="rotate(0, 400, 400)" opacity="0.60"></path><path d="M394.34 95.92C404.45 100.82 415.24 106.31 426.72 112.12 438.27 117.59 450.58 122.96 463.62 128.07 476.79 132.32 490.71 136.08 505.31 139.31 519.98 141.51 535.2 143.21 550.79 144.49 566.16 144.92 581.54 145.17 596.57 145.38 610.77 145.15 624.01 145.21 635.8 145.69 656.07 150.25 649.58 167.81 635.09 177.77 624.07 185.38 612.26 193.82 600.72 202.99 591.38 212.72 584.42 223.04 580.97 233.8 582.34 244.98 588.59 256.46 600.04 268.13 616.61 280.06 637.55 292.07 661.81 304.02 687.88 316.15 714.06 328.15 738.31 339.93 758.88 351.81 773.9 363.42 781.85 374.67 782.42 385.97 774.89 396.87 759.71 407.28 738.86 417.68 714.01 427.29 687.53 436.07 661.81 444.8 638.78 452.65 620.17 459.58 604 469.37 611.08 484.15 630.04 489.27 646.55 492.43 663.45 494.91 679.24 496.86 699.19 500.16 714.31 507.83 707.96 513.66 698.65 519.19 685.83 525.98 670.31 534.29 652.63 544.43 633.56 556.38 613.85 570.21 593.66 585.83 573.84 603.16 554.83 621.95 536.4 641.73 519.22 662.17 503.37 682.68 488.45 702.6 474.82 721.3 462.36 738 450.7 752.19 439.93 763.1 429.87 770.1 420.29 773.25 411.13 771.92 402.22 766.01 393.52 756.45 384.85 742.97 376.13 726.24 367.46 707.87 358.64 688.09 349.66 668.02 340.67 649.52 331.73 633.27 322.91 620.09 314.14 610.79 305.55 605.39 297.25 603.89 289.08 606.57 281.31 612.58 274.03 621.27 266.96 632.64 260.48 645.26 254.66 658.27 249.06 671.74 244.14 684.12 239.91 694.76 229.27 711.11 215.03 698.37 209.31 682.59 204.43 669.79 199 655.57 192.93 640.37 185.83 624.36 178.12 607.94 169.89 591.46 160.98 574.8 151.87 558.43 142.82 542.55 133.79 526.86 125.33 511.8 117.74 497.44 110.93 483.38 105.4 470.02 101.34 457.34 98.43 444.91 97.05 433.09 97.17 421.83 98.15 410.72 100.26 400.07 103.26 389.87 106.29 379.72 109.59 369.94 112.87 360.51 115.26 351.09 117.13 342.21 118.36 333.87 118.39 325.51 117.88 317.69 116.96 310.41 115.29 303.11 113.69 296.36 112.42 290.18 111.12 281.13 115.08 265.61 121.23 258.97 126.96 254.49 134.09 250.35 142.45 246.46 151.66 242.19 161.76 238.02 172.47 233.84 183.42 229.08 194.56 224.14 205.68 218.95 216.44 212.99 226.87 206.67 236.88 199.93 246.18 192.4 254.99 184.47 263.34 176.18 270.91 167.28 278.12 158.19 285.1 149.05 291.42 139.71 297.7 130.63 304.04 122 309.95 113.71 316.11 106.23 322.63 99.78 328.88 94.16 335.62 89.83 342.94 86.93 350.11 85.11 357.94 84.78 366.49 85.94 374.96 88.03 384.22 91.4 394.33 95.92" stroke-dasharray="0 1" transform="rotate(4.259259259259259, 400, 400)" opacity="0.09"></path><path d="M410.59 106.52C420.72 111.5 431.48 117.06 442.87 122.94 454.32 128.5 466.42 134 479.13 139.25 491.88 143.68 505.2 147.65 518.96 151.11 532.64 153.56 546.58 155.51 560.54 157.02 574.08 157.66 587.27 158.06 599.73 158.34 611.22 158.13 621.45 158.09 629.98 158.36 640.94 161.43 625.16 175.23 610.55 183.55 600.45 189.98 590.31 197.25 581.1 205.24 574.48 213.77 570.57 222.92 570.26 232.55 574.51 242.62 583.28 253.05 596.67 263.71 614.4 274.67 635.72 285.76 659.56 296.86 684.51 308.15 709.04 319.36 731.35 330.39 749.95 341.53 763.22 352.42 769.87 362.99 769.76 373.6 762.24 383.82 747.73 393.56 728.04 403.3 704.62 412.29 679.54 420.48 654.92 428.63 632.49 435.97 613.82 442.47 596.1 451.72 596.69 466.18 611.96 471.65 626.38 475.22 641.8 478.33 656.87 481.15 671.38 484.4 683.39 487.67 692.14 491.17 697.95 495.55 699.7 500.57 697.46 506.48 691.87 513.73 682.77 522.24 670.75 532.22 656.39 543.8 640.17 556.99 622.78 571.8 604.44 588.03 585.88 605.6 567.6 624.24 549.42 643.46 532.04 662.95 515.66 682.15 499.88 700.48 485.2 717.38 471.61 732.14 458.65 744.41 446.64 753.48 435.45 758.83 424.7 760.64 414.55 758.33 404.89 751.85 395.44 742.13 386.28 728.9 377.34 712.77 368.45 695.25 359.68 676.47 350.99 657.43 342.3 639.82 333.89 624.23 325.79 611.37 317.71 602.03 309.98 596.18 302.66 593.89 295.42 595.45 288.67 600.11 282.46 607.35 276.36 617.23 270.86 628.47 265.98 640.32 261.19 652.9 256.99 664.78 253.36 675.34 243.29 694.49 227.67 690.37 220.87 678.14 215.23 667.71 209.02 655.73 202.18 642.57 194.41 628.48 186.11 613.72 177.41 598.63 168.18 583.18 158.89 567.77 149.8 552.61 140.88 537.47 132.65 522.77 125.37 508.62 118.97 494.65 113.89 481.28 110.29 468.54 107.86 455.99 106.94 444.02 107.47 432.64 108.84 421.39 111.29 410.65 114.58 400.42 117.87 390.24 121.39 380.51 124.85 371.22 127.4 361.92 129.38 353.25 130.7 345.19 130.79 337.09 130.29 329.57 129.31 322.63 127.53 315.64 125.73 309.21 124.16 303.33 122.23 294.65 124.27 279.52 129.22 272.85 134.11 268.26 140.41 263.91 147.98 259.72 156.5 255.1 166.01 250.5 176.27 245.82 186.96 240.54 198.02 235.03 209.21 229.25 220.27 222.73 231.16 215.85 241.76 208.58 251.82 200.61 261.47 192.29 270.7 183.67 279.25 174.57 287.43 165.35 295.32 156.17 302.59 146.9 309.7 137.95 316.79 129.53 323.41 121.51 330.16 114.35 337.16 108.23 343.86 102.96 350.95 98.97 358.52 96.39 365.92 94.86 373.91 94.78 382.56 96.14 391.13 98.4 400.45 101.9 410.58 106.51" stroke-dasharray="4 3" transform="rotate(8.518518518518517, 400, 400)" opacity="0.51"></path><path d="M425.74 117.11C435.83 122.16 446.44 127.76 457.54 133.69 468.67 139.34 480.29 144.93 492.33 150.31 504.35 154.92 516.69 159.1 529.19 162.78 541.51 165.5 553.77 167.72 565.74 169.49 577.17 170.38 587.92 170.99 597.67 171.42 618.79 173.24 600.51 183.83 586.85 190.62 578.23 195.94 570.19 202.05 563.58 208.88 559.79 216.21 558.88 224.17 561.5 232.65 568.34 241.54 579.25 250.85 594.18 260.44 612.69 270.34 634.05 280.41 657.2 290.57 680.87 300.91 703.67 311.24 724.03 321.44 740.72 331.76 752.33 341.88 757.79 351.72 757.06 361.6 749.59 371.14 735.75 380.25 717.2 389.36 695.16 397.78 671.46 405.49 647.99 413.17 626.24 420.13 607.65 426.37 588.69 435.36 583.33 450.15 594.94 456.3 607.12 460.48 620.78 464.4 634.72 468.25 648.8 472.6 661.18 477.15 671.09 482.12 678.78 487.96 683.05 494.55 683.78 502.09 681.57 510.86 675.98 520.85 667.45 532.19 656.53 544.88 643.46 558.97 628.82 574.38 612.9 590.86 596.27 608.34 579.41 626.5 562.25 644.89 545.45 663.22 529.26 680.95 513.35 697.61 498.27 712.66 484.12 725.52 470.4 735.93 457.56 743.26 445.58 747.09 433.96 747.69 423.03 744.51 412.74 737.57 402.65 727.77 393.04 714.85 383.84 699.34 374.72 682.66 365.91 664.87 357.41 646.83 348.91 630.11 340.88 615.17 333.32 602.68 325.75 593.33 318.67 587.12 312.1 584.12 305.55 584.64 299.55 588.04 294.11 593.9 288.69 602.32 283.84 612.16 279.56 622.8 275.22 634.37 271.38 645.56 267.98 655.82 264.36 665.48 261.02 673.35 257.86 679.16 252.35 684.35 239.46 680.14 231.42 671.26 224.98 663.14 217.97 653.39 210.4 642.35 202.02 630.29 193.23 617.37 184.15 603.9 174.73 589.94 165.39 575.77 156.38 561.64 147.7 547.38 139.8 533.36 132.94 519.73 127.02 506.16 122.45 493.06 119.37 480.5 117.44 468.07 116.99 456.17 117.94 444.83 119.68 433.59 122.45 422.88 125.99 412.69 129.51 402.55 133.21 392.88 136.83 383.71 139.53 374.53 141.63 366.01 143.03 358.13 143.21 350.21 142.75 342.89 141.76 336.14 139.92 329.33 137.98 323.06 136.18 317.31 133.69 308.75 133.9 293.5 137.64 286.55 141.63 281.69 147.02 277 153.71 272.39 161.39 267.32 170.15 262.2 179.78 256.96 189.99 251.11 200.72 245.02 211.76 238.64 222.87 231.58 233.97 224.18 244.94 216.43 255.56 208.07 265.88 199.43 275.85 190.57 285.28 181.34 294.36 172.08 303.12 162.93 311.35 153.8 319.36 145.06 327.25 136.91 334.71 129.22 342.19 122.42 349.8 116.67 357.12 111.78 364.7 108.15 372.65 105.9 380.43 104.66 388.69 104.83 397.5 106.39 406.25 108.81 415.64 112.42 425.73 117.1" stroke-dasharray="1 0" transform="rotate(12.777777777777777, 400, 400)" opacity="0.32"></path><path d="M438.21 127.7C448.18 132.8 458.49 138.43 469.11 144.38 479.73 150.09 490.64 155.76 501.72 161.24 512.74 166.02 523.81 170.39 534.78 174.3 545.48 177.29 555.85 179.8 565.64 181.84 574.84 183.03 583.14 183.89 590.24 184.53 599.33 185.82 576.44 193.62 564.64 199.04 557.93 203.32 552.28 208.36 548.41 214.09 547.43 220.25 549.35 227.04 554.63 234.38 563.7 242.09 576.36 250.24 592.4 258.74 611.32 267.52 632.39 276.54 654.63 285.7 676.88 295.04 697.91 304.43 716.35 313.77 731.2 323.21 741.25 332.53 745.61 341.63 744.34 350.77 736.95 359.64 723.77 368.16 706.32 376.68 685.63 384.61 663.3 391.95 640.98 399.26 619.99 405.98 601.61 412.12 586.94 418.26 576.51 423.88 570.59 429.02 569.48 434.26 572.53 439.15 579.07 443.78 588.94 448.69 600.63 453.54 613.12 458.49 626.32 463.97 638.52 469.81 648.98 476.17 657.93 483.38 664.09 491.38 667.24 500.34 667.93 510.38 665.51 521.56 660.25 533.92 652.72 547.38 642.89 562 631.23 577.65 618.11 594.04 603.88 611.1 589.01 628.51 573.53 645.84 557.97 662.82 542.65 678.97 527.3 693.89 512.49 707.1 498.35 718.09 484.46 726.73 471.31 732.44 458.94 734.89 446.83 734.41 435.44 730.49 424.73 723.2 414.2 713.4 404.24 700.82 394.84 685.96 385.51 670.12 376.65 653.29 368.25 636.24 359.84 620.38 352.05 606.1 344.85 593.99 337.62 584.68 330.96 578.18 324.89 574.57 318.77 574.15 313.23 576.39 308.24 580.94 303.19 587.94 298.65 596.41 294.6 605.79 290.39 616.25 286.56 626.61 283.04 636.37 279.18 645.85 275.47 653.94 271.8 660.32 265.35 667.07 250.05 667.81 240.71 661.97 233.48 656.03 225.73 648.45 217.5 639.49 208.63 629.51 199.46 618.53 190.15 606.83 180.68 594.53 171.43 581.83 162.64 568.96 154.31 555.85 146.85 542.79 140.5 529.94 135.13 517.06 131.13 504.51 128.6 492.37 127.2 480.29 127.21 468.67 128.58 457.54 130.67 446.48 133.72 435.91 137.5 425.84 141.21 415.82 145.06 406.27 148.81 397.21 151.63 388.15 153.85 379.75 155.35 371.98 155.63 364.16 155.24 356.94 154.3 350.27 152.45 343.52 150.42 337.28 148.46 331.52 145.5 322.86 144.02 307.06 146.56 299.62 149.64 294.4 154.08 289.26 159.8 284.14 166.53 278.56 174.4 272.88 183.22 267.04 192.74 260.62 202.92 253.96 213.56 247 224.45 239.45 235.51 231.59 246.57 223.43 257.49 214.77 268.24 205.89 278.73 196.88 288.86 187.61 298.67 178.39 308.2 169.37 317.28 160.46 326.13 152 334.81 144.17 343.11 136.87 351.34 130.47 359.6 125.12 367.59 120.63 375.73 117.38 384.11 115.46 392.33 114.53 400.9 114.94 409.89 116.69 418.81 119.25 428.24 122.96 438.2 127.7" stroke-dasharray="6 1" transform="rotate(17.037037037037035, 400, 400)" opacity="0.25"></path><path d="M446.72 138.3C456.46 143.41 466.33 149.05 476.3 155 486.25 160.75 496.25 166.48 506.19 172.05 516.02 176.97 525.66 181.53 534.95 185.66 543.93 188.92 552.33 191.72 559.96 194.06 576.07 198.67 553.67 204.57 544.43 208.8 538.38 214.2 539.66 228.88 549.53 237.96 560.45 244.53 574.43 251.56 591.19 258.97 610.16 266.64 630.68 274.6 651.8 282.75 672.51 291.08 691.74 299.52 708.3 307.98 721.4 316.54 729.99 325.05 733.33 333.42 731.6 341.84 724.31 350.07 711.79 358.05 695.41 366.04 676.03 373.56 655.05 380.61 633.9 387.65 613.74 394.24 595.7 400.4 580.79 406.6 569.53 412.42 562.24 417.94 559.27 423.6 560.16 429.08 564.4 434.47 571.95 440.18 581.54 445.98 592.32 452.02 604.25 458.6 615.8 465.63 626.25 473.26 635.84 481.66 643.27 490.86 648.25 500.97 651.27 512 651.56 524.03 649.23 537.07 644.84 550.96 638.15 565.75 629.52 581.29 619.36 597.27 607.83 613.63 595.33 630.04 582 646.13 568.22 661.63 554.33 676.11 540.16 689.27 526.21 700.67 512.67 709.86 499.17 716.84 486.23 721.05 473.92 722.25 461.77 720.82 450.26 716.29 439.41 708.73 428.69 699 418.58 686.82 409.08 672.62 399.63 657.61 390.73 641.73 382.38 625.64 374.02 610.63 366.36 597.02 359.34 585.31 352.29 576.1 345.85 569.37 340 565.22 334.08 563.97 328.71 565.14 323.86 568.46 318.88 574.1 314.34 581.21 310.19 589.31 305.8 598.6 301.68 608.02 297.75 617.11 293.4 626.19 289.08 634.23 284.68 640.91 279.68 646.73 274.44 650.79 268.86 653.03 262.54 654 255.79 653.08 248.56 650.37 240.61 646.41 232.23 640.85 223.48 633.9 214.25 625.96 204.87 616.93 195.49 607.05 186.12 596.52 177.1 585.44 168.66 574.01 160.8 562.25 153.89 550.37 148.13 538.52 143.38 526.56 139.99 514.78 138.03 503.28 137.16 491.78 137.64 480.62 139.39 469.86 141.82 459.15 145.12 448.85 149.09 439.01 152.96 429.19 156.94 419.81 160.78 410.88 163.72 401.96 166.04 393.66 167.65 385.95 168.06 378.2 167.77 371 166.9 364.32 165.1 357.54 163.05 351.23 160.98 345.32 157.66 336.41 154.67 319.74 156.06 311.68 158.24 306.01 161.71 300.37 166.42 294.7 172.12 288.58 178.97 282.33 186.84 275.89 195.49 268.95 204.9 261.75 214.91 254.28 225.32 246.31 236.05 238.06 246.93 229.59 257.87 220.72 268.75 211.71 279.51 202.64 290.06 193.43 300.38 184.34 310.46 175.53 320.22 166.91 329.76 158.8 339.09 151.36 348.12 144.49 357.03 138.52 365.88 133.61 374.51 129.54 383.17 126.68 391.95 125.1 400.59 124.46 409.44 125.11 418.54 127.04 427.6 129.73 436.98 133.52 446.71 138.29" stroke-dasharray="3 2" transform="rotate(21.296296296296294, 400, 400)" opacity="0.33"></path><path d="M450.39 148.89C459.77 154.01 469.08 159.63 478.28 165.56 487.44 171.32 496.42 177.09 505.12 182.72 513.69 187.77 521.85 192.49 529.45 196.82 540.01 201.9 556.03 208.67 560.77 210.61 561.59 211.69 548.01 213.05 540.04 214.5 528.57 220.33 533.08 235.96 546.02 243.54 558.38 249.04 573.27 255.01 590.36 261.4 609.07 268 628.78 274.93 648.62 282.12 667.72 289.45 685.14 296.96 699.88 304.57 711.31 312.26 718.54 319.99 720.97 327.68 718.83 335.4 711.68 343.04 699.81 350.55 684.47 358.06 666.36 365.24 646.7 372.1 626.74 378.95 607.46 385.5 589.88 391.78 574.89 398.1 563.01 404.22 554.59 410.2 549.99 416.33 548.9 422.43 550.98 428.61 556.25 435.09 563.69 441.81 572.58 448.86 582.95 456.42 593.44 464.49 603.39 473.19 613.04 482.56 621.14 492.7 627.33 503.66 632.09 515.35 634.53 527.91 634.65 541.27 633.03 555.24 629.22 569.87 623.46 584.98 616.24 600.28 607.49 615.69 597.54 630.9 586.66 645.6 575.04 659.52 562.98 672.29 550.48 683.7 537.89 693.34 525.43 700.84 512.85 706.26 500.6 709.11 488.79 709.2 477.02 706.95 465.76 701.92 455.07 694.2 444.46 684.61 434.41 672.85 424.95 659.34 415.53 645.15 406.66 630.19 398.34 615.05 390.02 600.87 382.4 587.92 375.44 576.64 368.43 567.56 362.02 560.68 356.18 556.08 350.24 554.08 344.8 554.28 339.81 556.47 334.64 560.83 329.83 566.62 325.32 573.45 320.5 581.52 315.85 589.91 311.28 598.19 306.26 606.69 301.18 614.45 295.93 621.17 290.1 627.31 283.98 632.01 277.5 635.16 270.37 637.31 262.82 637.79 254.87 636.65 246.34 634.42 237.48 630.69 228.36 625.59 218.96 619.58 209.53 612.43 200.25 604.36 191.14 595.63 182.51 586.22 174.56 576.33 167.28 566.05 161 555.49 155.9 544.81 151.81 533.96 149.05 523.13 147.69 512.44 147.34 501.7 148.27 491.18 150.4 480.95 153.12 470.73 156.65 460.83 160.77 451.3 164.77 441.79 168.84 432.65 172.76 423.88 175.79 415.12 178.22 406.92 179.93 399.26 180.47 391.55 180.32 384.33 179.55 377.56 177.85 370.71 175.84 364.24 173.72 358.12 171.24 351.84 169.08 345.84 167.44 340.06 166.1 334.04 165.64 328.15 166.2 322.34 167.52 316.19 170.02 310.04 173.71 303.81 178.33 297.17 184.1 290.38 190.91 283.4 198.52 275.97 206.99 268.32 216.15 260.43 225.83 252.12 235.97 243.6 246.39 234.92 257.03 225.95 267.75 216.91 278.46 207.9 289.14 198.84 299.68 189.98 310.04 181.46 320.22 173.21 330.21 165.51 339.99 158.51 349.57 152.11 358.99 146.61 368.27 142.15 377.4 138.52 386.48 136.05 395.54 134.82 404.51 134.47 413.54 135.35 422.66 137.44 431.75 140.25 440.99 144.1 450.38 148.89" stroke-dasharray="0 3" transform="rotate(25.555555555555554, 400, 400)" opacity="0.69"></path><path d="M448.82 159.49C457.75 164.58 466.41 170.16 474.75 176.06 483.06 181.8 490.99 187.58 498.45 193.26 505.78 198.41 512.52 203.28 518.56 207.79 522.63 227.38 512.92 235.35 517.8 239.7 524.15 242.97 532.84 246.8 543.92 251.15 557.3 255.69 572.71 260.72 589.78 266.16 607.93 271.78 626.61 277.77 645.04 284.05 662.47 290.45 678.11 297.09 691.08 303.91 700.95 310.78 706.92 317.78 708.52 324.84 706.04 331.92 699.06 339.03 687.84 346.12 673.5 353.22 656.63 360.13 638.26 366.84 619.49 373.58 601.14 380.15 584.11 386.59 569.22 393.1 556.92 399.54 547.59 405.98 541.59 412.59 538.74 419.31 538.82 426.2 541.91 433.4 547.19 440.92 554.1 448.84 562.69 457.21 571.8 466.13 580.84 475.65 590.04 485.73 598.23 496.5 605.04 507.99 610.91 520.03 614.92 532.77 616.96 546.12 617.61 559.85 616.27 574.01 613.1 588.42 608.6 602.8 602.53 617.06 595.15 630.91 586.81 644.11 577.52 656.41 567.56 667.47 557.04 677.17 546.17 685.12 535.16 691.03 523.92 695.02 512.75 696.65 501.81 695.76 490.83 692.82 480.17 687.4 469.94 679.61 459.73 670.21 449.97 658.92 440.71 646.09 431.48 632.73 422.73 618.68 414.47 604.46 406.21 591.1 398.61 578.81 391.6 567.97 384.55 559.07 378.05 552.09 372.04 547.13 363.07 544.14 346.71 550.37 338.99 558.22 333.59 565.07 328.27 572.35 322.93 579.72 317.15 587.49 311.24 594.77 305.11 601.28 298.45 607.48 291.49 612.53 284.19 616.3 276.34 619.31 268.15 620.88 259.62 621.02 250.68 620.26 241.53 618.1 232.25 614.66 222.86 610.4 213.58 605.01 204.58 598.65 195.89 591.67 187.78 583.93 180.44 575.59 173.84 566.85 168.27 557.7 163.88 548.29 160.48 538.66 158.38 528.92 157.61 519.17 157.77 509.34 159.13 499.59 161.6 490.01 164.58 480.42 168.29 471.03 172.54 461.91 176.63 452.8 180.77 443.95 184.74 435.4 187.85 426.85 190.36 418.77 192.19 411.14 192.87 403.48 192.87 396.22 192.25 389.34 190.68 382.37 188.76 375.72 186.66 369.34 184.13 362.82 181.81 356.49 179.9 350.32 178.14 343.92 177.14 337.6 177.02 331.3 177.53 324.7 179.13 318.05 181.81 311.3 185.35 304.19 189.99 296.93 195.67 289.48 202.15 281.67 209.53 273.65 217.67 265.45 226.41 256.92 235.7 248.25 245.41 239.47 255.45 230.51 265.71 221.56 276.07 212.71 286.54 203.9 296.98 195.36 307.32 187.22 317.62 179.4 327.76 172.17 337.73 165.66 347.59 159.76 357.28 154.76 366.8 150.77 376.22 147.59 385.52 145.51 394.7 144.62 403.84 144.56 412.9 145.66 421.91 147.89 430.91 150.8 439.88 154.7 448.81 159.48" stroke-dasharray="3 2" transform="rotate(29.814814814814813, 400, 400)" opacity="0.83"></path><path d="M442.19 170.08C450.57 175.14 458.52 180.66 466.01 186.49 473.45 192.19 480.36 197.96 486.68 203.65 492.87 208.88 498.36 213.87 503.09 218.55 504.14 241.12 504.33 247.91 512.45 251.4 520.62 254.01 530.81 257.12 543 260.72 556.99 264.46 572.54 268.66 589.25 273.29 606.59 278.05 624.07 283.19 640.98 288.67 656.73 294.23 670.61 300.09 681.91 306.18 690.3 312.33 695.13 318.66 696 325.16 693.23 331.67 686.44 338.3 675.86 345.04 662.5 351.79 646.82 358.47 629.71 365.1 612.13 371.75 594.76 378.37 578.38 384.99 563.71 391.69 551.19 398.45 541.17 405.33 534.02 412.36 529.64 419.61 527.92 427.12 528.98 434.91 532.18 443.07 537.07 451.67 543.76 460.64 551.25 470.15 559.05 480.22 567.37 490.72 575.16 501.82 582.03 513.51 588.42 525.59 593.38 538.18 596.77 551.21 599.13 564.41 599.77 577.84 598.75 591.3 596.62 604.56 592.98 617.51 588 629.91 582.11 641.55 575.16 652.21 567.36 661.58 558.97 669.63 550.01 676 540.69 680.44 531.06 683.15 521.28 683.7 511.5 681.98 501.61 678.47 491.85 672.76 482.32 664.97 472.78 655.83 463.53 645.04 454.64 632.91 445.76 620.35 437.24 607.19 429.1 593.86 420.96 581.31 413.37 569.68 406.29 559.3 399.16 550.62 392.48 543.6 386.2 538.35 379.8 535.15 373.73 533.71 367.92 533.91 361.91 535.96 356.07 539.3 350.32 543.67 344.27 549.3 338.21 555.46 332.07 561.84 325.54 568.75 318.82 575.39 311.88 581.51 304.48 587.52 296.81 592.65 288.83 596.75 280.44 600.32 271.78 602.67 262.89 603.79 253.75 604.2 244.52 603.35 235.3 601.32 226.12 598.59 217.18 594.77 208.64 589.99 200.52 584.63 193.06 578.47 186.43 571.65 180.58 564.42 175.78 556.69 172.14 548.58 169.46 540.24 168.01 531.65 167.81 522.93 168.46 514.1 170.23 505.23 172.99 496.39 176.2 487.53 180.06 478.75 184.4 470.11 188.54 461.48 192.72 453 196.72 444.71 199.89 436.42 202.48 428.5 204.41 420.93 205.25 413.33 205.41 406.05 204.96 399.06 203.57 391.99 201.79 385.15 199.77 378.51 197.26 371.74 194.86 365.09 192.76 358.54 190.69 351.79 189.25 345.07 188.55 338.32 188.34 331.32 189.09 324.24 190.83 317.04 193.31 309.56 196.84 301.92 201.35 294.12 206.64 286.03 212.84 277.77 219.83 269.38 227.46 260.76 235.72 252.05 244.48 243.31 253.66 234.49 263.18 225.73 272.9 217.15 282.85 208.7 292.87 200.56 302.88 192.87 312.96 185.54 322.95 178.83 332.8 172.86 342.64 167.49 352.33 163 361.82 159.5 371.29 156.76 380.58 155.08 389.69 154.51 398.78 154.73 407.71 156.03 416.46 158.4 425.21 161.4 433.8 165.32 442.18 170.08" stroke-dasharray="3 2" transform="rotate(34.07407407407407, 400, 400)" opacity="0.75"></path><path d="M431.18 180.68C438.94 185.67 446.17 191.11 452.84 196.85 459.46 202.5 465.46 208.22 470.79 213.9 478.27 221.71 489.13 235.22 492.34 240.7 488.18 255.47 498.42 261.54 509.27 264.43 518.85 266.54 530.13 269.1 543 272.12 557.22 275.2 572.56 278.73 588.63 282.69 604.96 286.72 621.09 291.14 636.43 295.94 650.49 300.78 662.66 305.96 672.37 311.43 679.4 316.93 683.18 322.7 683.4 328.71 680.4 334.71 673.83 340.94 663.88 347.38 651.47 353.82 636.94 360.32 621.07 366.88 604.67 373.46 588.31 380.14 572.66 386.92 558.35 393.77 545.77 400.8 535.28 408.03 527.22 415.41 521.56 423.06 518.25 431.04 517.45 439.25 518.69 447.86 521.61 456.9 526.35 466.24 532.08 476.07 538.39 486.39 545.5 497.03 552.46 508.16 558.92 519.73 565.28 531.54 570.62 543.71 574.77 556.12 578.25 568.55 580.32 581.02 580.96 593.35 580.74 605.34 579.13 616.89 576.24 627.75 572.56 637.83 567.78 646.86 562.07 654.61 555.78 661.11 548.78 666.01 541.23 669.11 533.34 670.67 525.11 670.28 516.67 667.86 508.07 663.9 499.41 658.01 490.79 650.3 482.12 641.47 473.56 631.2 465.19 619.77 456.81 608.01 448.64 595.72 440.71 583.27 432.78 571.5 425.24 560.53 418.09 550.63 410.89 542.2 404.03 535.21 397.44 529.74 390.75 526.09 384.28 523.98 377.96 523.33 371.46 524.36 365.04 526.59 358.62 529.82 351.95 534.26 345.2 539.28 338.32 544.63 331.11 550.6 323.72 556.47 316.09 562.02 308.13 567.65 299.92 572.62 291.48 576.78 282.76 580.63 273.86 583.48 264.85 585.28 255.74 586.55 246.65 586.73 237.7 585.84 228.94 584.38 220.52 581.91 212.59 578.51 205.18 574.61 198.49 569.9 192.66 564.48 187.63 558.69 183.63 552.33 180.76 545.5 178.79 538.43 177.97 531.02 178.32 523.36 179.44 515.58 181.56 507.64 184.59 499.61 187.98 491.53 191.96 483.43 196.34 475.35 200.51 467.26 204.69 459.21 208.7 451.24 211.91 443.27 214.57 435.56 216.6 428.09 217.59 420.6 217.94 413.32 217.68 406.25 216.49 399.11 214.9 392.12 213.03 385.25 210.61 378.28 208.22 371.36 206.01 364.49 203.73 357.45 201.95 350.39 200.77 343.28 199.95 335.96 199.96 328.54 200.84 321.01 202.34 313.25 204.79 305.36 208.18 297.34 212.26 289.1 217.24 280.74 223.01 272.3 229.41 263.72 236.5 255.12 244.14 246.54 252.26 237.96 260.79 229.53 269.63 221.32 278.77 213.3 288.08 205.65 297.46 198.47 307 191.7 316.53 185.55 325.97 180.14 335.49 175.32 344.88 171.36 354.08 168.35 363.32 166.05 372.36 164.76 381.18 164.52 390.01 164.99 398.62 166.48 406.96 168.97 415.32 172.03 423.4 175.95 431.17 180.67" stroke-dasharray="1 3" transform="rotate(38.33333333333333, 400, 400)" opacity="0.42"></path><path d="M416.93 191.27C424.05 196.18 430.58 201.52 436.51 207.15 442.4 212.71 447.64 218.36 452.2 224 458.58 231.86 467.56 245.78 470.15 251.62 471.68 266.79 478.13 272.5 484.84 274.17 491.15 275.27 498.84 276.71 508 278.51 518.57 280.29 530.51 282.47 543.66 285.06 557.75 287.67 572.57 290.69 587.76 294.11 602.89 297.57 617.58 301.43 631.3 305.66 643.7 309.92 654.25 314.54 662.46 319.5 668.24 324.46 671.07 329.75 670.73 335.34 667.56 340.93 661.23 346.81 651.9 352.99 640.4 359.17 627 365.51 612.32 371.99 597.1 378.51 581.76 385.2 566.91 392.09 553.08 399.05 540.62 406.26 529.86 413.72 521.11 421.31 514.41 429.22 509.77 437.48 507.33 445.92 506.77 454.75 507.83 463.99 510.65 473.44 514.57 483.33 519.24 493.62 524.89 504.11 530.7 514.97 536.35 526.15 542.19 537.43 547.41 548.91 551.78 560.47 555.81 571.92 558.74 583.26 560.51 594.32 561.67 604.94 561.62 615.02 560.41 624.34 558.57 632.86 555.66 640.33 551.8 646.54 547.43 651.6 542.27 655.16 536.44 657.08 530.28 657.63 523.62 656.44 516.59 653.45 509.38 649.16 501.93 643.18 494.33 635.62 486.66 627.14 478.92 617.41 471.19 606.69 463.44 595.71 455.74 584.27 448.1 572.67 440.46 561.68 433.05 551.36 425.88 541.95 418.68 533.81 411.67 526.89 404.82 521.29 397.89 517.27 391.05 514.59 384.28 513.21 377.36 513.33 370.42 514.55 363.43 516.7 356.24 520 348.93 523.91 341.47 528.21 333.77 533.19 325.87 538.2 317.78 543.05 309.47 548.12 300.97 552.72 292.31 556.73 283.51 560.59 274.63 563.66 265.75 565.87 256.9 567.72 248.19 568.63 239.73 568.61 231.56 568.15 223.82 566.77 216.66 564.52 210.06 561.86 204.22 558.41 199.26 554.24 195.07 549.76 191.89 544.65 189.79 539.03 188.51 533.18 188.31 526.91 189.17 520.3 190.7 513.56 193.14 506.56 196.39 499.36 199.92 492.11 203.97 484.72 208.37 477.24 212.53 469.75 216.69 462.19 220.67 454.59 223.91 446.99 226.62 439.53 228.75 432.22 229.89 424.89 230.42 417.68 230.37 410.58 229.43 403.43 228.06 396.35 226.38 389.33 224.11 382.22 221.81 375.12 219.59 368.01 217.21 360.77 215.19 353.47 213.66 346.11 212.35 338.59 211.73 330.96 211.87 323.24 212.49 315.34 213.96 307.34 216.28 299.23 219.21 291 222.98 282.68 227.52 274.34 232.65 265.94 238.48 257.56 244.9 249.28 251.81 241.07 259.19 233.05 266.94 225.31 275.05 217.81 283.4 210.71 291.9 204.11 300.64 197.93 309.43 192.38 318.19 187.55 327.09 183.3 335.91 179.87 344.57 177.34 353.31 175.48 361.87 174.57 370.19 174.63 378.56 175.35 386.67 177.01 394.47 179.59 402.3 182.7 409.8 186.61 416.92 191.26" stroke-dasharray="3 0" transform="rotate(42.59259259259259, 400, 400)" opacity="0.10"></path><path d="M400.93 201.87C407.4 206.67 413.29 211.89 418.59 217.38 423.86 222.83 428.52 228.39 432.55 233.96 438.2 241.81 446.31 256.04 448.86 262.19 453.79 275.96 460.69 284.28 465.37 285.94 469.78 286.83 475.17 287.88 481.66 289.14 489.35 290.26 498.23 291.64 508.31 293.33 519.47 294.95 531.66 296.91 544.72 299.22 558.35 301.52 572.39 304.19 586.49 307.24 600.3 310.29 613.48 313.72 625.59 317.53 636.37 321.34 645.37 325.52 652.19 330.06 657.82 337.05 651.67 352.78 639.92 361.52 629.31 367.47 616.98 373.64 603.48 380.04 589.41 386.46 575.12 393.13 561.12 400.05 547.87 407.03 535.68 414.29 524.84 421.85 515.64 429.51 508.14 437.5 502.4 445.83 498.56 454.3 496.41 463.13 495.76 472.31 496.75 481.64 498.88 491.31 501.87 501.3 505.91 511.38 510.34 521.73 514.87 532.26 519.83 542.77 524.47 553.36 528.59 563.89 532.64 574.2 535.9 584.29 538.26 593.99 540.26 603.2 541.26 611.8 541.27 619.6 540.1 629.6 532.52 642.31 526.46 644.36 521.88 644.06 516.7 642.2 511.03 638.78 505.18 634.26 498.95 628.28 492.41 620.94 485.79 612.84 478.94 603.68 471.93 593.66 464.9 583.46 457.74 572.85 450.49 562.08 443.24 551.84 436.06 542.17 428.97 533.26 421.86 525.44 414.8 518.66 407.78 512.99 400.71 508.68 393.63 505.54 386.52 503.52 379.31 502.84 372.02 503.14 364.63 504.3 357.1 506.53 349.43 509.37 341.6 512.64 333.62 516.6 325.48 520.69 317.18 524.76 308.78 529.13 300.25 533.22 291.64 536.87 283.03 540.53 274.42 543.57 265.91 545.93 257.56 548.08 249.44 549.45 241.65 550.02 234.24 550.28 227.32 549.73 221.03 548.39 212.87 545.53 201.84 535.87 199.29 529.33 198.86 521.99 203.62 504.97 208.39 495.56 212.02 489.13 216.1 482.47 220.47 475.62 224.6 468.75 228.71 461.72 232.65 454.54 235.89 447.37 238.65 440.22 240.85 433.13 242.15 426.02 242.87 418.95 243.04 411.9 242.35 404.82 241.23 397.74 239.79 390.66 237.75 383.52 235.6 376.33 233.46 369.1 231.07 361.78 228.94 354.37 227.18 346.89 225.51 339.3 224.41 331.61 223.93 323.84 223.81 315.96 224.42 307.99 225.79 299.96 227.65 291.87 230.28 283.75 233.64 275.64 237.52 267.55 242.08 259.53 247.23 251.66 252.86 243.92 258.99 236.42 265.54 229.23 272.45 222.31 279.67 215.82 287.12 209.85 294.82 204.3 302.65 199.36 310.52 195.13 318.56 191.45 326.57 188.56 334.49 186.51 342.51 185.07 350.38 184.51 358.03 184.86 365.75 185.8 373.22 187.61 380.39 190.28 387.59 193.41 394.45 197.29 400.92 201.86" stroke-dasharray="4 5" transform="rotate(46.85185185185185, 400, 400)" opacity="0.43"></path><path d="M384.83 212.46C390.68 217.15 396.01 222.21 400.82 227.55 405.61 232.86 409.86 238.29 413.58 243.76 420.97 253.9 426.33 263.55 429.98 272.38 434.04 279.31 437.17 285.32 440.24 290.52 445.15 293.98 451.58 297.11 460.6 300.25 473.21 302.33 489.6 304.99 509.84 308.52 533.16 311.61 558.77 315.94 584.68 321.61 608.77 327.15 628.66 334.16 641.57 342.64 645.8 349.15 638.94 364.04 627.94 372.44 618.18 378.17 606.89 384.18 594.52 390.45 581.58 396.74 568.35 403.31 555.25 410.16 530.96 424 510.76 439.12 496.06 455.41 487.77 472.08 485.01 490 486.49 508.83 492.25 527.75 499.34 547.09 506.04 566.04 513.32 583.89 518.12 600.09 519.84 613.46 520.41 623.88 517.65 630.03 511.88 631.02 505.13 628.02 496.02 619.66 485.06 606.26 479.46 598.59 473.51 590.01 467.26 580.69 460.98 571.25 454.43 561.44 447.64 551.48 440.86 541.99 434.01 532.95 427.1 524.56 420.2 517.09 413.22 510.48 406.19 504.82 392.03 497.01 377.44 493.11 362.39 492.64 347.05 496.06 331.09 501.33 314.7 507.32 298.26 514.81 281.74 521.26 265.74 525.88 250.71 530.13 237.16 531.75 225.93 530.6 217.02 528.53 211.33 523.82 209.32 516.75 209.9 509.04 213.81 499.44 220.59 488.33 224.28 482.69 228.34 476.75 232.66 470.53 236.72 464.3 240.75 457.81 244.63 451.1 247.85 444.39 250.63 437.62 252.91 430.81 254.35 424 255.25 417.14 255.64 410.23 254.04 396.38 251.09 382.25 247.54 367.87 242.75 353.28 239.01 338.28 236.97 323 235.87 307.55 237.39 291.9 241.54 276.39 247.42 261.18 255.77 246.59 266.02 233.19 277.66 220.99 290.56 210.7 304.03 202.94 318.23 197.24 332.45 194.57 346.13 195.22 353.06 196.36 359.8 198.3 366.27 201.02 372.77 204.16 378.97 207.99 384.82 212.45" stroke-dasharray="3 5" transform="rotate(51.11111111111111, 400, 400)" opacity="0.28"></path><path d="M370.3 223.05C380.86 232.26 389.73 242.61 396.94 253.42 404.18 263.44 409.99 273.13 414.73 282.16 420.06 289.57 425.14 296.18 430.73 302.05 438.14 306.33 447.33 310.24 459.04 314.04 473.69 316.77 491.49 319.9 512.2 323.7 534.89 326.96 558.84 331.25 582.22 336.73 603.34 341.98 620.22 348.59 630.61 356.63 634.21 364.58 629.34 374.03 615.97 385.07 596.92 396.12 573.7 408.36 549.29 421.66 526.26 435.12 506.27 449.78 490.66 465.47 480.34 481.36 474.81 498.22 473.26 515.64 475.79 532.88 480.14 550.14 484.86 566.65 490.76 581.92 495.13 595.33 497.24 605.91 498.23 615.77 485.5 608.81 472.84 591.61 463.43 576.82 452.36 559.48 439.86 540.89 427.35 523.9 414.13 508.89 400.37 496.77 386.59 488.55 372.17 483.63 357.22 481.71 342.2 483.26 326.66 486.62 310.9 490.87 295.41 496.75 280.13 502.06 265.66 506.08 252.39 510.12 240.77 512.06 231.54 511.68 222.53 509.02 223.75 491.66 233 478 240.35 468.14 248.53 456.91 256.61 444.48 262.29 432.06 266.2 419.1 268.18 405.79 267.17 392.46 264.83 378.69 261.77 364.59 257.29 350.4 253.47 335.81 250.93 321.01 248.85 306.22 248.95 291.37 251.32 276.81 255.04 262.73 261.03 249.39 268.91 237.33 278 226.49 288.47 217.54 299.73 211 311.7 206.36 323.93 204.52 335.9 205.71 348.13 208.78 359.73 214.63 370.29 223.05" stroke-dasharray="4 4" transform="rotate(55.37037037037037, 400, 400)" opacity="0.21"></path><path d="M358.86 233.65C368.42 242.52 376.8 252.48 384.06 262.92 391.41 272.75 397.95 282.39 404.01 291.53 410.74 299.29 417.76 306.41 425.67 312.87 435.23 317.91 446.62 322.58 460.28 327.08 476.2 330.54 494.58 334.25 514.99 338.46 536.46 342.08 558.33 346.54 579 352 597.17 357.2 611.2 363.61 619.32 371.35 621.55 378.97 616.44 388.03 603.99 398.64 586.68 409.24 565.61 421 543.21 433.75 521.61 446.6 502.15 460.51 486.09 475.24 474.26 490.03 466.46 505.49 462.24 521.18 461.74 536.5 463.29 551.51 465.73 565.5 469.71 578.2 472.96 588.96 474.7 596.96 476.19 603.62 467.17 593.62 456.8 576.99 448.96 563.25 439.29 547.33 427.93 530.29 416.57 514.63 404.2 500.55 391.09 488.82 378.02 480.35 364.21 474.64 349.88 471.49 335.67 471.39 321.08 472.98 306.46 475.55 292.37 479.76 278.73 483.77 266.12 486.92 254.81 490.39 245.25 492.24 238.04 492.21 231.66 490.63 236.02 476.8 245.59 465.07 252.84 456.53 260.76 446.5 268.59 435.1 274.22 423.71 278.29 411.58 280.62 398.93 280.22 386.31 278.54 373.14 276.06 359.6 272.05 346.08 268.4 332.19 265.65 318.17 262.96 304.31 262.02 290.51 262.97 277.13 264.87 264.34 268.81 252.39 274.52 241.75 281.22 232.32 289.35 224.71 298.45 219.37 308.15 215.74 318.36 214.67 328.62 216.34 339.1 219.66 349.3 225.49 358.86 233.65" stroke-dasharray="6 0" transform="rotate(59.629629629629626, 400, 400)" opacity="0.79"></path><path d="M351.68 244.24C360.38 252.74 368.45 262.26 375.93 272.28 383.55 281.84 390.91 291.33 398.3 300.47 406.35 308.48 415.07 315.97 424.88 322.92 436.06 328.64 448.97 334.01 463.77 339.17 480.17 343.38 498.37 347.72 517.81 352.41 537.56 356.51 557.07 361.28 574.93 366.87 590.24 372.17 601.63 378.52 607.72 386.04 608.78 393.45 603.53 402.16 592.01 412.28 576.38 422.4 557.39 433.55 536.99 445.54 516.95 457.6 498.31 470.5 482.22 483.99 469.4 497.42 459.86 511.23 453.41 524.97 450.21 538.24 449.08 550.93 449.15 562.41 453.02 583.67 447.03 578.28 438.34 562.42 431.73 549.75 423.29 535.22 413.11 519.7 402.92 505.34 391.6 492.22 379.45 480.98 367.4 472.42 354.61 466.11 341.37 461.96 328.4 460.43 315.19 460.43 302.17 461.42 289.81 463.99 278.1 466.62 267.56 468.73 248.12 471.86 248.66 460.32 258.38 450.21 265.43 442.8 273.05 433.88 280.56 423.53 286.11 413.19 290.3 401.99 292.96 390.19 293.15 378.44 292.15 366.1 290.33 353.39 286.95 340.77 283.68 327.84 281 314.86 278.05 302.16 276.44 289.62 276.37 277.6 276.87 266.22 279.13 255.74 283.02 246.57 287.63 238.56 293.65 232.27 300.75 228.07 308.33 225.39 316.62 225.03 325.27 227.12 334.09 230.62 342.98 236.38 351.68 244.24" stroke-dasharray="1 2" transform="rotate(63.88888888888889, 400, 400)" opacity="0.27"></path><path d="M349.52 254.84C357.5 262.92 365.36 271.95 373.11 281.49 381.03 290.7 389.14 299.95 397.65 308.96 406.74 317.09 416.73 324.83 427.86 332.12 440.03 338.4 453.71 344.37 468.86 350.11 485 355.02 502.33 359.99 520.23 365.17 537.91 369.81 554.86 374.95 569.93 380.73 582.53 386.24 591.5 392.61 595.81 399.96 595.89 407.21 590.62 415.58 580.03 425.16 566.01 434.74 549.01 445.16 530.61 456.23 512.23 467.32 494.67 479.02 478.92 491.05 465.62 502.95 454.88 514.95 446.71 526.64 441.25 537.81 437.73 548.2 435.54 557.3 434.4 572.47 426.72 562.86 419.1 547.91 413.37 536.33 405.97 523.16 396.92 509.11 387.88 496.02 377.74 483.88 366.81 473.21 356.01 464.72 344.57 458.03 332.81 453.1 321.39 450.39 309.91 449.01 298.79 448.56 288.38 449.59 278.76 450.83 270.38 451.82 256.52 453.3 261.67 443 271.34 434.19 278.13 427.72 285.37 419.81 292.54 410.51 297.96 401.2 302.22 391.01 305.17 380.2 305.93 369.45 305.61 358.13 304.49 346.47 301.85 334.96 299.14 323.21 296.76 311.5 293.88 300.12 291.98 288.99 291.29 278.45 290.84 268.58 291.86 259.61 294.32 251.92 297.24 245.29 301.51 240.27 306.9 237.15 312.63 235.34 319.23 235.6 326.45 238.04 333.79 241.68 341.53 247.32 349.52 254.84" stroke-dasharray="2 5" transform="rotate(68.14814814814814, 400, 400)" opacity="0.47"></path><path d="M352.59 265.43C359.97 273.05 367.65 281.55 375.6 290.56 383.71 299.33 392.35 308.24 401.63 317.02 411.37 325.12 422.09 332.96 433.86 340.46 446.36 347.13 460.07 353.56 474.82 359.77 490.06 365.28 505.96 370.79 521.9 376.42 537.27 381.57 551.6 387.08 563.95 393.07 574.03 398.8 580.85 405.21 583.62 412.4 582.91 419.49 577.71 427.5 568.05 436.48 555.57 445.45 540.49 455.03 524.05 465.04 507.41 475.03 491.13 485.39 476.07 495.84 462.74 506.12 451.33 516.25 441.97 525.89 434.77 535 429.27 543.22 425.1 550.13 418.75 560.04 407.84 547.36 400.78 533.47 395.59 522.98 389.02 511.15 381.06 498.51 373.09 486.68 364.2 475.53 354.67 465.52 345.26 457.23 335.39 450.34 325.36 444.88 315.68 441.23 306.13 438.69 297.07 437.01 270.42 435.71 275.03 425.63 284.48 417.83 290.92 412.13 297.75 405.12 304.52 396.82 309.76 388.52 314.05 379.4 317.24 369.69 318.51 360.04 318.85 349.89 318.46 339.46 316.62 329.2 314.6 318.79 312.72 308.49 310.19 298.56 308.35 288.94 307.42 279.95 306.58 267.87 311.33 250.68 316.84 246.63 321.09 245.61 326.3 246.42 332.33 249.13 338.43 252.83 345.21 258.3 352.59 265.43" stroke-dasharray="2 4" transform="rotate(72.4074074074074, 400, 400)" opacity="0.22"></path><path d="M360.58 276.03C367.44 283.15 374.89 291.07 382.89 299.48 391 307.75 399.85 316.21 409.44 324.65 419.35 332.58 430.21 340.36 441.96 347.89 454.13 354.79 467.2 361.5 480.91 368.03 494.73 373.98 508.78 379.91 522.49 385.89 535.43 391.46 547.17 397.28 556.97 403.42 564.75 409.34 569.67 415.75 571.16 422.74 569.84 429.64 564.79 437.23 556.06 445.53 545.04 453.83 531.79 462.49 517.28 471.34 502.42 480.17 487.59 489.11 473.5 497.93 460.56 506.57 448.99 514.87 438.98 522.54 430.59 529.73 423.63 535.97 417.87 540.93 411.51 546.33 401.93 546.66 397.03 540.96 393.84 535.51 389.87 528.16 384.96 519.11 380.06 509.71 374.14 499.18 367.16 487.92 360.17 477.31 352.53 467.18 344.45 457.88 336.5 449.93 328.28 443.04 320.09 437.24 312.22 432.91 304.64 429.48 297.65 426.79 279.97 420.53 288.73 409.04 297.77 401.99 303.8 396.89 310.16 390.67 316.5 383.34 321.52 376 325.78 367.95 329.14 359.4 330.88 350.92 331.82 342.02 332.12 332.93 331.11 324.02 329.86 315.05 328.63 306.26 326.67 297.82 325.17 289.75 324.34 282.33 324.63 265.83 335.4 256.84 342.59 260.37 347.72 264.07 353.72 269.32 360.58 276.03" stroke-dasharray="5 4" transform="rotate(76.66666666666666, 400, 400)" opacity="0.32"></path><path d="M372.67 286.62C379.04 293.2 386.17 300.5 393.96 308.26 401.85 315.95 410.53 323.88 419.94 331.85 429.55 339.46 439.97 347.02 451.07 354.42 462.35 361.36 474.23 368.16 486.4 374.81 498.43 381.03 510.36 387.21 521.71 393.38 532.22 399.23 541.49 405.22 548.95 411.41 554.7 417.41 558 423.75 558.45 430.45 556.69 437.09 551.89 444.19 544.08 451.75 534.46 459.31 522.96 466.98 510.31 474.64 497.25 482.26 483.98 489.79 471.1 497.02 458.92 504.08 447.64 510.66 437.48 516.52 428.48 521.99 420.58 526.49 413.72 529.8 405.3 533.08 392 530.8 385.9 524.87 382.04 519.68 377.78 512.95 372.97 504.84 368.2 496.52 362.77 487.25 356.66 477.32 350.55 467.92 344.09 458.81 337.44 450.29 330.89 442.8 324.3 436.06 317.91 430.16 308.94 423.36 294.62 414.21 290.19 411.02 289.37 405.8 302.74 393.95 311.22 387.46 316.77 382.84 322.61 377.31 328.48 370.89 333.24 364.46 337.4 357.47 340.87 350.1 342.98 342.8 344.47 335.2 345.41 327.5 345.21 319.97 344.76 312.46 344.25 305.2 342.54 294.98 340.72 278.06 341.39 272.15 346.55 268.13 363.6 277.9 372.67 286.62" stroke-dasharray="0 1" transform="rotate(80.92592592592592, 400, 400)" opacity="0.18"></path><path d="M387.58 297.22C399.36 309.39 414.37 323.71 431.79 338.64 449.59 352.66 469.82 366.68 490.62 380.11 510.26 392.3 527.82 404.51 539.9 416.79 546.46 428.56 544.26 441.23 532.1 454.75 514.38 468.26 491.87 481.34 468.71 492.99 447.06 504.02 427.96 512.46 412.37 516.91 399.74 519.43 389.13 516.82 379.51 508.66 370.83 498.71 361.35 484.25 350.67 466.73 339.98 450.81 329.19 436.01 319.48 423.58 310.57 414.53 304.01 407.29 301.11 401.19 299.98 397.03 303.14 392.23 310.64 385.87 318.6 379.88 329.02 371.41 340.46 360.25 348.3 349.08 354.27 336.48 358.23 323.7 358.37 311.48 358.12 299.94 358.65 290.52 358.35 280.4 371.87 282.92 387.58 297.22" stroke-dasharray="0 3" transform="rotate(85.18518518518518, 400, 400)" opacity="0.32"></path><path d="M403.79 307.81C414.52 318.73 428.08 331.55 443.54 345.05 459.08 358.01 476.15 371.19 492.97 383.94 508.44 395.88 521.58 407.78 529.85 419.46 533.85 430.81 530.88 442.52 520.13 454.34 505.19 466.15 486.19 476.9 466.22 485.86 446.84 494.33 428.85 500.17 413.39 502.45 399.9 503.39 388.2 500.09 377.95 492.38 368.46 483.56 359.11 471.13 349.79 456.13 340.46 442.35 332 429.09 325.13 417.44 318.77 408.22 314.85 400.27 314.16 393.31 314.54 387.89 318.44 382.2 325.72 375.66 332.98 369.48 342.24 361.66 352.43 352.08 359.77 342.49 365.87 332.14 370.5 321.99 372.69 307.88 376.22 289.69 381.74 289.1 385.86 291.55 393.06 297.77 403.79 307.81" stroke-dasharray="6 4" transform="rotate(89.44444444444444, 400, 400)" opacity="0.45"></path><path d="M419.6 318.4C429.15 327.98 440.86 339.21 453.8 351.09 466.64 362.73 480.2 374.7 493 386.38 504.51 397.59 513.71 408.72 518.83 419.46 520.83 430 517.45 440.5 508.15 450.55 495.84 460.61 480.2 469.2 463.48 475.85 446.81 482.14 430.68 485.94 416.25 486.7 402.98 486.58 391.15 483.06 380.9 476.11 371.18 468.53 362.21 458.1 354.12 445.54 346.03 433.85 339.48 422.27 334.82 411.69 330.43 402.77 328.42 394.65 329.15 387.35 330.41 381.16 334.49 374.94 341.16 368.4 347.53 362.17 355.53 355.01 364.41 346.89 371.12 338.76 377.12 330.49 382.15 322.74 386.12 312.11 393.04 299.98 399.09 300.93 403.34 303.68 410.05 309.49 419.6 318.4" stroke-dasharray="5 4" transform="rotate(93.7037037037037, 400, 400)" opacity="0.16"></path><path d="M433.38 329C441.59 337.16 451.16 346.69 461.31 356.81 471.28 366.86 481.34 377.31 490.36 387.56 498.34 397.59 504.23 407.52 506.89 416.96 507.43 426.31 503.98 435.35 496.17 443.62 486.32 451.89 473.87 458.54 460.39 463.29 446.68 467.81 432.98 470.11 420.33 469.92 408.24 469.22 397.2 465.86 387.62 459.9 378.36 453.64 370.12 445.17 363.21 434.94 356.3 425.31 351.26 415.52 348.17 406.27 345.18 398.07 344.35 390.32 345.78 383.17 347.36 376.78 351.14 370.47 356.89 364.2 362.22 358.17 368.88 351.74 376.39 345 382.34 338.26 388.01 331.85 393.12 326.18 398.32 318.54 407.99 311.29 414.51 313.26 418.96 316.08 425.16 321.32 433.38 329" stroke-dasharray="2 2" transform="rotate(97.96296296296296, 400, 400)" opacity="0.69"></path><path d="M443.69 339.59C457.15 353.11 472.7 370.59 484.88 387.66 494.19 404.41 495.27 420.98 484.19 433.98 468.04 446.98 445.74 453.46 424.96 452.44 404.97 450.42 387.56 440.54 376.12 424.35 364.68 409.65 360.61 394.05 363.6 380.63 366.42 369.01 375.36 357.35 388.37 346.53 397.29 335.71 406.4 327.6 415.03 324.44 421.07 322.56 430.24 327.32 443.69 339.59" stroke-dasharray="1 2" transform="rotate(102.22222222222221, 400, 400)" opacity="0.30"></path><path d="M449.47 350.19C459.69 360.51 469.78 373.82 476.53 386.88 481.63 399.93 480.87 412.7 472.21 422.23 460.76 431.75 444.83 435.93 429.48 434.57 414.19 432.84 400.43 425.57 391.5 413.75 382.58 402.76 379.72 390.49 382.14 379.5 384.14 369.43 390.61 359.59 400.35 351.39 407.71 343.18 416 337.99 424.11 336.82 430.77 336.27 439.25 340.58 449.47 350.19" stroke-dasharray="4 5" transform="rotate(106.48148148148148, 400, 400)" opacity="0.74"></path><path d="M450.12 360.78C463.76 374.96 470.77 396.7 460.24 409.09 444.87 421.47 420.15 418.68 407.77 403.16 395.38 389.06 398.53 370.4 412.32 359.27 421.78 348.12 436.47 347.9 450.12 360.78" stroke-dasharray="4 6" transform="rotate(110.74074074074073, 400, 400)" opacity="0.29"></path></g></svg>